# xmcd
#
# Track frame offsets:
#	150
#	15187
#	29665
#	45950
#	60139
#	81507
#	93960
#	110725
#	128407
#	147680
#	164107
#	180177
#	196702
#	206922
#
# Disc length: 2992 seconds
#
# Revision: 0
# Processed by: cddbd v1.5.1PL0 Copyright (c) Steve Scherf et al.
# Submitted via: dBpowerAMP V4.0
#
DISCID=b50bae0e
DTITLE=Varios - Love Songs Country Hits CD2
DYEAR=2002
DGENRE=Country
TTITLE0=Knocking on Heaven´s Door - Doug Wayne
TTITLE1=Nobody Does It Better - Cleide Poocker
TTITLE2=Fire and Rain - Doug WaYne
TTITLE3=San Francisco - Greg William
TTITLE4=Sunshine - Deborah Hill
TTITLE5=Blowin´ In The Wind - Paul McHill
TTITLE6=If You Leave Me Now - Tony Richman
TTITLE7=Daniel - Diane Hill
TTITLE8=Just The Way You Are - Dennis Wayne
TTITLE9=Summer Breeze - Fernan Cardy
TTITLE10=House of The Rising Sun - Dogie Bryan
TTITLE11=Woman - Lyrde Donald
TTITLE12=The Morning After - Sara Miles
TTITLE13=It Never Rain Southern California - John Mc
EXTD=
EXTT0=
EXTT1=
EXTT2=
EXTT3=
EXTT4=
EXTT5=
EXTT6=
EXTT7=
EXTT8=
EXTT9=
EXTT10=
EXTT11=
EXTT12=
EXTT13=
PLAYORDER=
